<svg width="871" height="342" viewBox="0 0 871 342" fill="none" xmlns="http://www.w3.org/2000/svg">
<path d="M719.727 3.33188C721.256 3.1784 722.941 3.08731 724.451 3.39829C727.541 4.03379 730.396 5.82487 732.131 8.47837C740.651 21.4878 739.346 84.6817 736.301 100.996C735.831 103.515 734.801 107.647 732.296 108.977C731.151 109.584 729.951 109.824 728.706 109.344C722.711 107.028 720.851 85.1267 719.286 79.0711C717.811 73.3562 715.796 67.6833 712.991 62.4784C708.016 53.2434 700.321 46.0674 690.142 43.0428C682.132 40.6638 672.651 41.007 665.271 45.1209C657.492 49.4624 653.006 57.0859 650.791 65.5038C645.546 85.4457 648.547 112.02 659.062 129.9C662.482 135.72 667.276 140.928 674.111 142.493C677.166 143.192 680.176 142.882 682.831 141.137C692.291 134.912 690.356 121.676 692.751 112.269C693.346 109.937 694.081 108.078 696.196 106.789C701.601 105.928 702.851 113.08 703.451 116.962C704.536 123.607 705.132 130.323 705.227 137.055C705.462 146.679 704.836 178.56 699.706 188.165C699.276 188.975 697.677 189.105 696.767 189.175C690.047 187.075 694.016 166.734 677.591 164.599C647.891 160.735 635.192 202.289 629.602 224.564C626.607 236.499 627.447 255.07 634.642 265.46C647.717 284.034 676.981 282.52 693.911 270.42C712.256 257.52 719.426 235.814 723.301 214.849C723.926 211.2 724.332 207.595 724.892 203.995C726.202 196.195 725.952 187.784 728.687 180.319C731.417 172.865 738.202 174.34 740.477 181.045C741.527 184.15 742.192 187.335 742.097 190.64C741.357 215.414 739.236 240.195 739.366 264.995C739.351 277.7 739.612 289.845 738.222 302.58C737.012 313.615 735.876 335.585 723.536 340.155C711.886 344.47 705.621 332.435 698.991 325.67C695.966 322.6 692.406 320.115 688.481 318.335C655.846 303.495 641.806 351.034 610.666 338.604C602.901 335.504 597.557 326.46 594.847 318.8C581.352 280.7 603.341 248.47 618.826 215.285C631.616 186.895 642.146 157.031 641.371 125.633C641.081 113.961 638.967 101.259 636.977 89.5204C633.307 67.3794 624.131 39.2433 633.951 17.8543C644.251 -4.57773 667.881 3.30665 683.626 13.2C696.596 21.349 708.187 7.21788 719.727 3.33188ZM202.758 3.84067C210.653 3.10467 221.578 5.24969 222.8 14.6336C224.76 29.6815 208.658 42.3503 201.294 53.9442C173.007 98.4786 178.755 150.296 197.47 197.015C205.145 216.66 217.468 238.18 221.229 258.445C225.317 280.465 228.233 311.465 215.747 330.63C205.667 343.684 183.946 345.935 179.089 327.995C171.564 300.205 182.898 269.589 181.449 241.394C180.183 216.744 175.139 191.554 171.237 167.224C165.523 135.227 166.347 103.599 171.993 71.6317C175.655 50.8997 179.622 11.5433 202.758 3.84067ZM125.759 9.96177C135.947 2.11327 153.992 -0.316281 161.472 11.3387C170.206 24.9487 160.993 53.5059 155.713 67.4959C151.577 78.4524 144.72 87.8864 141.353 99.2489C123.857 145.963 142.144 177.909 156.467 221.359C160.803 234.149 163.33 247.145 165.272 260.495C168.938 285.695 169.789 319.3 145.757 335.135C138.173 340.214 128.865 342.03 119.929 340.17C90.7558 333.83 98.5334 298.87 111.862 281.99C115.755 277.06 122.98 268.87 125.25 263.47C139.676 229.15 121.339 191.985 119.639 157.029C118.574 135.028 121.541 114.455 126.644 93.6883C127.672 89.2941 131.674 75.7974 129.598 72.286L128.514 72.0116C116.359 76.8131 105.745 106.005 103.612 117.867C96.9069 155.15 102.193 193.31 96.3594 230.765C92.2824 256.939 78.6515 249.219 75.1885 228.529C71.951 213.214 69.31 197.949 67.6035 182.314C64.5965 154.771 64.5209 125.127 51.4814 99.9413C50.0489 97.1747 45.2074 89.1453 41.666 91.5565C38.3267 98.5892 43.6957 123.65 45.0732 132.941C47.7872 151.247 51.2032 169.819 51.4297 188.479C51.2732 211.724 48.856 232.47 54.2285 255.505C58.9976 275.955 77.2929 285.925 79.9434 305.79C82.4636 324.685 64.9496 338.71 47.3633 340.46C36.3313 341.625 25.2932 338.299 16.7432 331.229C-6.85187 311.614 -1.69597 278.059 9.04296 253.149C14.8849 239.599 23.5162 224.455 28.2852 210.96C33.7596 194.97 36.3514 178.135 35.9394 161.245C35.0489 131.579 22.0039 108.502 10.7119 82.0204C-1.34953 53.7334 0.485177 7.02042 39.5176 3.47739C45.2845 3.12939 52.021 3.95923 56.7519 7.48618C70.4699 17.7117 62.268 61.941 62.4814 77.617C62.6659 91.1399 64.4239 104.867 66.5459 118.214C68.0614 127.745 80.1074 181.996 84.6787 185.314C86.5006 183.794 87.4582 180.13 88.1152 177.79C97.6177 143.962 94.1389 105.903 98.2168 71.5995C101.537 49.5255 107.269 24.2048 125.759 9.96177ZM314.985 3.63462C318.744 4.16059 321.749 6.44223 323.618 9.61899C334.829 28.6709 330.693 54.0681 316.402 70.4276C313.443 73.8151 307.4 79.3988 302.5 77.9383C298.224 76.6638 299.675 69.0667 298.61 65.7352C295.109 54.2378 285.68 44.1125 273.724 41.4325C266.371 39.739 258.646 41.1068 252.32 45.2206C244.21 50.5511 239.694 59.8417 237.968 69.1522C235.057 84.9631 238.77 101.276 248.237 114.269C251.407 118.675 255.29 122.42 258.238 126.9C249.636 136.236 244.966 144.61 257.378 153.181C257.323 154.177 257.301 155.176 257.312 156.174C257.373 159.108 258.923 163.635 261.26 165.505C266.409 169.624 271.123 167.299 276.343 166.979C277.66 169.419 278.967 171.715 281.199 173.465C283.657 175.37 286.801 176.164 289.869 175.649C295.216 174.779 298.459 171.309 301.398 167.229C306.263 175.499 310.522 178.619 320.015 173.729C320.308 173.949 320.596 174.174 320.88 174.404C324.221 177.124 328.616 181.95 331.629 185.14C343.885 198.119 351.822 209.245 353.577 227.305C356.609 258.515 343.501 280.444 323.917 303.144C313.874 314.784 292.612 339.914 276.959 340.805C268.918 341.26 261.977 338.635 256.121 333.42C241.263 320.195 239.883 301.714 238.558 283.399C237.248 254.794 225.927 227.019 223.09 198.579C222.813 195.809 222.918 193.339 223.073 190.59C223.326 186.11 226.269 179.365 231.78 180.345C237.705 181.395 239.616 189.16 241.215 193.92C247.739 217.22 249.435 242.584 264.444 262.649C271.54 272.134 283.065 281.924 295.153 284.074C310.027 285.669 320.474 269.834 323.305 257.394C330.169 227.464 307.562 201.559 285.47 184.694C267.352 170.859 243.948 161.049 228.834 143.691C214.549 127.284 212.633 102.827 214.438 82.0018C217.409 47.7468 245.147 -16.8896 289.076 11.6444C292.239 13.4203 300.875 21.5308 304.505 21.0819C313.905 19.9199 307.985 9.31612 314.985 3.63462ZM792.336 2.99204C809.416 1.96654 826.921 8.31759 839.686 19.5956C858.421 36.1485 868.911 60.3777 870.366 85.1336C872.001 112.996 864.656 142.725 845.811 163.875C835.796 175.12 823.456 182.315 808.151 182.445C802.941 182.49 797.751 181.59 792.531 181.92C787.586 182.235 782.776 183.595 779.471 187.505C764.596 205.095 791.051 252.585 798.536 271.2C801.956 279.715 804.851 288.48 805.676 297.66C807.531 307.355 804.416 322.33 798.106 330.045C793.656 335.51 786.956 340.15 779.761 340.64C759.146 342.039 752.536 323.88 751.881 306.795C751.436 295.17 753.411 285.795 755.471 274.54C758.411 258.485 761.656 242.575 762.516 226.26C763.326 210.125 760.326 193.97 759.366 177.925C758.441 162.485 757.981 146.981 756.816 131.556C755.516 114.342 753.636 96.9601 752.156 79.8036C750.466 60.2011 748.501 32.9818 762.246 17.0409C770.931 6.96461 779.591 4.00653 792.336 2.99204ZM303.761 183.29C303.708 183.52 303.643 183.755 303.603 183.99C302.05 193.071 347.171 223.095 330.009 268.97C327.127 276.67 322.596 285.14 316.128 290.425C310.58 294.955 303.749 296.549 296.72 295.684C286.923 294.479 267.583 283.855 259.34 290.635C256.28 293.15 254.534 297.105 254.218 300.995C253.655 307.935 256.339 315.81 260.848 321.045C262.974 323.515 265.443 325.425 268.425 326.75C270.074 327.08 270.825 327.4 272.427 326.885C274.628 323.274 256.885 307.135 263.21 299.38C264.739 297.505 266.031 295.469 269.058 294.979C286.375 293.275 296.577 308.795 314.496 298.455C319.244 295.655 323.308 291.825 326.391 287.255C337.091 271.44 339.456 242.07 335.948 223.62C333.424 210.34 326.784 202.46 317.005 193.655C313.763 190.735 308.109 184.33 303.761 183.29ZM45.0029 187.335C44.1809 188.96 44.3144 189.97 44.1309 191.87C40.7543 215.795 30.3884 240.875 35.1709 264.88C36.8729 271.665 41.113 277.454 44.9404 283.019C50.2589 290.854 61.0538 297.335 59.9473 307.905C59.299 314.095 51.1892 318.21 46.4902 315.985C20.6147 303.75 25.0665 266.609 29.25 243.599C30.459 236.95 31.3533 230.624 31.2353 225.229C22.2219 247.974 13.7359 273.349 24.0752 297.269C29.4541 309.709 44.5213 329.649 60.3057 322.2C63.5586 320.685 66.0666 317.93 67.2656 314.545C72.9911 298.18 45.5753 271.44 41.7393 254.08C37.0903 233.04 42.7196 216.425 45.1602 195.825C45.4606 192.92 45.8493 190.145 45.0029 187.335ZM214.546 257.14C215.857 273.349 214.442 290.499 204.426 303.684C201.267 307.844 197.715 311.565 194.855 315.89C193.227 318.5 193.538 319.95 195.179 322.36C214.012 317.685 219 274.22 215.448 258.67C215.183 257.51 215.345 257.864 214.546 257.14ZM159.551 269.599C158.556 273.044 157.961 277.529 157.394 281.059C155.753 291.269 150.859 299.27 143.381 306.275C138.357 311.17 130.179 313.885 125.308 318.68C124.774 319.21 125.36 320.465 125.601 321.025C134.226 320.57 143.875 312.16 149.542 306.04C158.196 296.69 161.3 285.045 160.62 272.51C160.526 270.77 160.529 270.604 159.551 269.599ZM624.207 217.184C609.107 243.589 596.822 295.639 626.922 318.439C635.467 324.914 651.541 316.725 658.821 311.195C672.861 300.08 713.252 280.46 719.467 309.925C719.562 312.16 719.347 318.81 719.792 320.165C723.257 320.405 723.647 313.959 723.672 311.555C723.712 303.625 720.502 296.03 714.792 290.53C711.412 287.245 704.742 283.355 699.512 284.085C675.952 287.395 646.817 311.664 623.562 295.274C616.802 290.514 614.586 275.979 614.441 268.349C614.171 254.405 616.892 240.62 620.957 227.335C621.647 225.09 624.312 219.084 624.207 217.184ZM788.812 288.199C783.467 294.269 771.051 307.544 776.621 316.154C780.806 313.424 792.227 292.774 788.812 288.199ZM129.991 163.625C128.915 167.68 129.527 174.499 130.34 178.484C136.839 210.354 156.522 237.499 138.206 270.109C131.223 282.539 126.577 282.93 115.999 291.394C115.548 291.759 115.825 292.58 115.907 293.2C117.202 294.545 118.497 294.504 120.394 294.819C139.88 294.354 149.467 273.765 151.016 256.845C153.479 229.925 143.794 205.605 134.85 180.905C133.138 176.185 132.285 167.67 129.991 163.625ZM184.195 198.024C184.984 204.244 187.154 211.254 188.518 217.434C192.293 234.539 196.073 251.89 193.896 269.51C193.111 276.635 186.335 289.025 189.579 293.26C191.481 293.75 191.935 293.459 193.617 292.26C202.588 281.145 201.236 266.274 200.65 252.979C200.273 244.429 188.587 202.229 184.195 198.024ZM763.591 127.475C761.376 134.139 765.131 150.413 768.586 156.975C771.581 162.665 775.601 166.335 778.806 171.635C778.941 171.86 778.551 173.799 778.376 174.18C774.716 182.084 769.232 187.79 767.356 196.729C762.726 218.829 777.261 237.895 772.866 259.22C771.851 264.145 770.716 266.25 768.921 270.585C767.071 275.045 757.301 289.765 758.366 293.445C759.801 292.745 760.466 291.294 761.376 289.894L761.916 289.16C773.541 273.455 782.311 272.01 779.541 248.095C777.331 228.965 761.151 203.22 773.776 186.21C776.866 182.05 782.136 178.35 785.176 173.97C782.771 170.425 779.871 167.585 777.142 164.375C770.672 156.773 767.431 147.118 766.256 137.325C765.941 134.959 765.421 128.287 763.591 127.475ZM590.966 3.39927C615.181 1.18577 620.835 39.6351 622.605 56.4461C623.64 66.2839 623.451 112.161 611.951 112.39C602.636 107.08 610.501 44.311 553.851 40.1815C555.296 44.1125 556.931 47.8801 557.831 51.9911C563.011 75.6324 559.576 100.168 558.386 123.904C557.436 142.303 558.12 160.75 560.44 179.025C561.83 190.275 563.935 201.09 565.025 212.415C562.356 215.385 560.84 216.74 557.726 219.14C557.761 218.27 557.781 217.395 557.781 216.525C557.786 195.23 553.19 183.53 538.525 168.765C539.16 159.665 542.366 151.333 543.541 142.277C547.566 111.326 564.061 61.669 532.886 39.702C520.871 31.2353 505.166 35.0087 493.681 41.7391C465.881 58.0339 461.016 32.9797 474.961 14.2557C479.646 7.95821 487.666 4.23729 495.711 3.46079C517.996 2.55532 530.176 15.9906 551.916 16.3426C566.046 17.1365 577.881 4.59527 590.966 3.39927ZM93.8467 182.074C92.7027 188.534 91.8214 199.19 86.1504 203.015C82.9689 205.164 78.4076 206.34 81.3955 211.71C83.8183 211.88 85.4084 212.149 87.2783 210.265C92.7128 204.784 94.184 193.819 94.335 186.404C94.364 184.974 94.4146 183.264 93.8467 182.074ZM648.941 124.134C648.521 127.575 648.881 132.172 648.871 135.769C648.821 141.495 648.296 147.206 647.301 152.845C646.656 156.549 644.306 164.86 645.301 167.955C646.636 168.07 647.351 167.39 648.481 166.3C654.711 160.29 657.766 158.543 665.716 155.616C670.676 154.481 680.236 152.885 684.486 151.406C675.391 150.87 663.481 151.713 654.571 153.354C654.471 147.705 652.746 127.767 648.941 124.134ZM832.855 31.6942C827.28 27.5568 819.795 25.7597 812.98 25.9872C801.791 27.1097 792.596 30.9322 785.366 40.0223C768.006 61.8598 765.751 93.5725 768.181 120.475C770.066 135.983 774.336 168.699 796.44 166.58C804.965 165.76 814.076 154.32 818.681 147.753C835.686 123.486 846.275 79.3235 832.065 51.618C823.456 36.8123 819.031 38.2171 805.176 33.5291C838.506 33.4121 852.036 47.3614 854.591 82.6434C855.031 88.7437 852.611 95.6845 850.776 101.334C848.551 108.62 837.677 123.155 839.091 128.697C843.401 131.865 849.486 122.47 851.581 119.382C870.466 91.5552 858.71 50.8827 832.855 31.6942ZM850.461 129.934C843.776 138.477 838.741 147.343 829.571 153.765C827.656 155.104 823.391 157.21 823.216 159.246C824.456 159.624 823.826 159.59 825.096 159.365C833.721 154.792 854.751 143.505 852.716 131.48C851.561 130.017 852.276 130.531 850.461 129.934ZM227.547 74.6004C222.927 83.116 224.229 107.903 227.5 117.369C229.91 124.343 233.924 134.206 240.648 138.145L242.207 137.498C242.371 135.88 237.405 125.419 235.749 122.305C227.696 107.162 228.595 90.9601 227.646 74.7166C227.613 74.6778 227.58 74.6393 227.547 74.6004ZM41.9053 16.66C30.4688 24.0395 24.9415 34.8835 21.957 47.8895C17.5496 67.099 22.3553 83.4346 28.8223 101.387C30.3187 105.541 32.9928 113.153 35.0098 117.032L35.8603 116.799C38.2653 111.015 28.6998 81.5584 27.3603 73.6004C24.6024 57.2207 24.8156 44.0645 35.2529 30.3211C37.6484 27.1672 43.97 21.516 44.3848 17.826L43.7158 16.9061L41.9053 16.66ZM204.356 24.5184C203.237 25.5944 200.812 28.0529 200.267 29.3534C194.823 42.325 173.569 92.1979 175.69 104.623L176.367 104.618L176.723 104.154C180.788 89.2907 184.914 74.0609 191.196 59.9549C194.931 51.57 201.135 43.6543 204.456 35.0174C205.498 32.3089 208.871 25.2284 204.356 24.5184ZM50.5518 41.951C43.9448 51.8915 39.7331 72.2625 48.5205 82.367C49.183 79.385 49.2443 75.1354 49.3643 72.0829C49.6573 64.6052 50.9818 58.4794 53.6201 51.4862C54.9711 47.9047 55.8488 42.7195 50.5518 41.951ZM670.661 18.5282C651.556 17.6852 642.646 39.4649 641.921 55.5584C641.396 58.4213 640.812 66.2224 642.076 68.6874C642.671 66.0555 642.661 63.9219 642.776 61.242C644.356 49.1256 649.521 34.1246 660.826 27.7987C666.426 24.7053 673.026 23.9591 679.176 25.7235C683.476 26.9635 689.056 29.8962 693.931 31.4442C714.346 37.9232 717.411 38.8185 727.556 56.4803C727.296 45.8003 723.841 31.8429 712.471 27.7665C707.166 25.8646 700.526 27.9609 695.096 26.8114C686.726 25.0408 679.491 18.7542 670.661 18.5282ZM781.941 15.7196C771.916 22.5581 764.521 32.7624 762.191 44.7899C761.271 49.5474 760.882 57.5647 762.492 62.0907C765.687 59.3886 766.566 42.359 768.861 37.2752C769.441 35.9937 772.342 30.1248 772.752 29.0233C774.032 25.5712 781.976 18.0125 781.941 15.7196ZM610.366 54.867C609.121 36.9715 601.406 18.2375 580.246 19.4334C573.111 20.3999 568.641 22.6331 562.026 25.493C542.976 33.728 534.751 28.1853 517.541 22.9383C525.421 29.2678 537.861 35.1271 548.271 34.4666C553.116 34.159 559.612 31.0433 564.066 29.0633C573.181 26.1469 584.716 25.4166 593.656 29.5526C605.341 34.9591 605.221 46.9005 610.366 54.867ZM306.482 37.4569C292.749 30.9638 286.787 17.0429 268.705 19.4002C250.031 22.7172 238.149 34.9513 230.096 51.5458C233.428 48.6488 235.563 44.6951 238.367 41.3026C251.376 25.5681 267.505 21.1987 285.849 31.1307C295.134 36.2835 312.56 54.2644 318.396 39.2577C319.684 35.9476 321.888 28.3381 319.525 25.3817C317.211 26.8564 312.66 40.3773 306.482 37.4569ZM507.541 19.8241C504.146 16.5367 500.471 16.705 495.946 16.7645C495.276 16.769 494.601 16.7961 493.931 16.8446C488.036 18.4932 477.962 24.3711 478.996 31.3973C481.736 34.2618 487.561 30.4138 490.846 29.2137C495.331 27.6847 504.326 25.4454 507.491 22.5389C508.211 20.7585 508.196 21.6331 507.541 19.8241Z" fill="#F7F7F1"/>
<path d="M382.625 0C403.493 0.988 418.357 12.3715 416.356 34.413C415.221 46.929 401.99 68 388.832 56.651C383.131 51.734 399.722 35.1645 399.808 34.7865L399.033 34.154C397.393 34.071 395.962 35.083 394.85 36.117C380.179 49.756 384.788 64.4565 397.04 77.338C404.18 84.8455 408.717 98.392 407.425 108.583C404.317 133.097 388.606 112.953 379.918 105.229C366.519 92.369 340.609 80.5425 323.104 92.587L322.527 92.991C325.403 96.5505 328.133 97.9485 330.819 102.27C320.952 118.317 300.674 95.3665 288.183 107.558C287.117 108.599 287.158 108.054 287.145 109.471C289.631 110.17 293.694 107.929 297.613 108.359C303.06 108.956 307.167 111.002 312.398 112.433C317.43 113.81 324.87 113.445 329.395 110.596C337.084 105.754 331.087 97.6885 331.519 95.5845C334.747 93.0935 341.076 93.531 345.026 93.8645C360.865 95.2135 374.247 104.601 383.496 117.138C388.853 124.401 392.462 130.569 401.637 132.873C411.53 130.811 416.07 124.735 417.122 114.717C418.95 97.302 409.129 86.337 399.047 73.53C414.548 83.2765 431.776 94.0755 437.156 112.561C440.531 124.163 439.501 132.375 433.971 142.863C428.561 151.245 420.803 157.874 411.202 160.715C389.918 167.01 376.05 156.63 374.515 134.785C374.127 129.275 374.983 124.457 373.335 119.114C369.581 106.943 356.329 102.707 345.084 106.513C340.38 107.897 335.589 113.872 332.076 116.099C316.167 126.185 316.341 133.611 319.33 151.189C320.005 155.165 319.956 163.215 318.261 167.23C316.931 170.38 311.506 171.85 308.554 169.945C302.245 164.955 310.084 147.741 305.117 143.551C296.258 143.465 299.676 167.815 292.409 169.785C269.877 175.895 295.172 144.331 292.42 137.669L291.429 137.423C283.155 140.469 279.045 156.496 272.411 161.77C269.696 163.925 266.147 163.05 264.622 159.93C264.522 155.944 273.117 140.593 275.214 134.871L275.48 134.133C270.713 138.768 267.58 146.186 260.558 147.219C254.054 148.176 255.034 139.516 257.679 136.648C262.178 131.772 266.57 127.233 271.037 122.281C277.717 114.874 280.371 105.446 288.469 99.3905C290.6 97.838 292.362 96.3345 294.719 95.0075C301.946 90.9395 310.272 87.7405 318.201 85.4365C330.534 81.8535 343.478 78.7585 356.384 79.8835C364.19 80.564 371.181 83.707 378.821 85.034C380.023 85.241 380.128 84.787 380.965 84.0635C381.226 82.7 380.517 81.5005 379.521 80.535C366.167 67.5835 349.191 58.2965 347.618 37.63C346.961 28.0385 350.126 18.577 356.422 11.311C363.84 2.824 371.866 0.7095 382.625 0Z" fill="#3FCEE5"/>
<path d="M353.632 109.417C358.613 109.515 359.989 109.59 364.549 111.732C372.436 120.817 367.226 132.929 367.015 144.689C366.843 152.084 368.329 159.424 371.364 166.169C385.425 197.409 422.835 203.319 446.621 179.729C454.866 171.284 461.536 161.169 472.831 156.367C487.406 150.169 501.016 150.354 515.646 155.849C491.231 155.12 470.206 165.479 455.931 185.389C453.061 189.394 448.081 196.295 444.436 199.06C436.246 205.275 423.321 205.144 419.144 216.519C416.805 222.409 417.471 228.235 417.485 234.555C417.512 246.46 416.309 259.099 410.711 269.829C403.247 284.144 388.139 293.054 380.13 307.109C378.885 309.294 376.612 313.824 377.246 316.144C379.146 317.879 386.022 317.439 389.525 317.169C403.046 316.119 407.702 328.175 400.614 338.37C396.689 342.215 388.613 341.584 384.189 341.624C365.326 341.774 358.61 330.314 359.539 312.539C360.413 295.824 380.007 292.804 389.973 282.949C392.033 280.909 396.282 277.914 396.555 274.734C395.181 274.889 394.97 275.404 393.675 276.389C389.048 280.549 384.083 284.314 378.832 287.649C373.725 290.904 363.966 295.615 360.361 299.93C351.451 310.59 356.774 332.484 366.548 340.719C357.866 340.829 339.406 344.034 332.813 338.589C331.278 337.324 330.053 334.389 330.111 332.124C330.638 311.579 349.515 287.249 365.349 275.279C371.015 270.994 384.394 269.759 389.226 263.939C391.669 260.994 391.566 257.929 391.126 254.604C388.58 235.349 374.162 222.519 365.748 206.609C360.734 197.134 358.276 183.359 357.421 172.549C360.627 180.829 363.609 188.57 368.583 195.99C380.705 214.07 403.659 229.189 403.65 252.974C403.647 260.389 401.684 265.669 399.794 272.674C405.342 266.794 407.58 260.874 409.114 253.149C413.288 232.134 403.648 225.004 389.496 212.469C382.517 206.289 375.27 198.549 370.02 190.764C360.661 176.884 355.788 157.703 359.327 141.189C360.354 136.393 363.117 130.238 363.947 125.515C366.516 110.908 353.516 112.539 351.871 110.138L353.632 109.417Z" fill="#3FCEE5"/>
<path d="M507.482 45.8468C509.967 45.7128 510.787 45.6888 512.762 47.0038C515.937 53.2748 504.247 57.7548 502.037 64.9453C503.292 71.6928 519.372 62.2038 523.157 61.8043C527.457 61.3503 533.857 62.8023 534.507 67.8183C531.587 76.2633 511.607 72.5843 510.872 79.1118C513.977 83.9153 524.887 82.7188 531.292 86.0258C539.607 104.267 502.897 83.6973 494.482 91.2653C490.477 98.8648 507.562 111.711 498.722 118.83C492.707 123.034 488.747 112.558 488.152 108.637C485.192 89.1458 444.317 72.9003 443.602 101.435C443.177 118.476 461.362 136.92 457.137 155.784C452.902 174.685 433.692 187.84 414.79 188.54C409.154 188.7 405.895 188.12 400.396 186.995C375.32 178.8 366.915 156.77 371.123 132.181C372.71 138.514 372.648 142.877 375.135 149.69C386.202 180.015 433.777 169.085 443.117 143.532C450.377 123.663 436.512 96.1008 421.211 82.9513C412.842 75.7588 407.169 72.5758 396.548 68.8633C400.782 64.5828 405.928 60.7528 410.477 56.5633C410.275 59.2458 410.418 61.5653 410.53 64.2358C412.173 66.5563 413.288 68.0658 416.11 69.1058C422.231 71.3613 431.352 65.3223 437.452 62.7333C450.212 57.3203 460.752 56.3533 474.487 57.9713C478.142 58.4023 486.812 60.2033 489.877 59.1463C497.432 56.5398 499.057 50.1158 506.877 46.1478L507.482 45.8468Z" fill="#3FCEE5"/>
<path d="M504.711 159.955C536.916 154.663 549.741 193.245 548.076 218.63C547.661 225.005 546.586 231.4 545.786 237.75C557.921 232.29 568.816 216.7 580.386 209.475C584.756 206.745 592.711 202.785 596.536 209.285C597.991 211.765 597.451 214.855 596.796 217.505C591.746 237.255 572.726 240.1 560.051 253.275C554.606 258.935 547.186 285.165 535.251 280.285C525.986 276.495 525.966 259.535 523.611 251.8C522.036 246.63 515.191 241.105 513.426 235.755C508.846 223.27 510.411 202.97 495.146 197.75C482.421 193.4 466.911 198.615 455.391 203.81C452.011 205.49 449.661 206.725 446.086 207.88C446.386 207.565 446.691 207.25 447.001 206.94C457.111 196.76 472.956 184.59 488.006 184.585C492.931 184.56 497.811 185.595 502.301 187.625C524.841 197.915 509.861 227.14 519.241 236.045C521.011 237.725 523.051 238.495 525.486 238.345C529.521 238.09 532.816 236.11 535.331 232.995C542.226 224.455 544.061 209.91 542.846 199.335C542.556 196.83 542.026 192.525 539.986 190.92C538.426 193.2 542.251 218.765 530.076 231.31C528.071 233.38 525.716 235.095 522.751 235.105C521.841 234.695 520.671 234.185 520.416 233.03C517.376 219.39 523.511 201.785 517.201 188.715C505.856 165.24 470.551 184.65 455.466 192.545C456.421 190.9 457.491 189.33 458.671 187.84C470.161 173.09 485.931 162.27 504.711 159.955Z" fill="#3FCEE5"/>
<path d="M376.369 232.06C387.752 243.805 387.074 257.69 372.298 265.915C368.236 268.175 362.498 272.53 358.758 275.455L353.379 280.21C363.194 261.01 372.926 255.67 376.369 232.06Z" fill="#3FCEE5"/>
</svg>
