<svg width="500" height="500" viewBox="0 0 500 500" fill="none" xmlns="http://www.w3.org/2000/svg">
<path d="M185.739 0C216.264 1.44548 238.007 18.0999 235.081 50.3474C233.42 68.6587 214.066 99.4862 194.818 82.8822C186.48 75.6885 210.748 51.4468 210.875 50.8938L209.74 49.9684C207.342 49.847 205.248 51.3276 203.621 52.8403C182.161 72.7946 188.903 94.302 206.825 113.148C217.27 124.132 223.907 143.951 222.017 158.861C217.47 194.725 194.488 165.253 181.779 153.953C162.179 135.139 124.279 117.836 98.6716 135.458L97.8283 136.049C102.035 141.257 106.029 143.302 109.958 149.624C95.5237 173.102 65.8618 139.524 47.59 157.36C46.0307 158.883 46.0899 158.087 46.0716 160.16C49.7081 161.182 55.6522 157.904 61.3842 158.532C69.3527 159.406 75.3597 162.4 83.0116 164.493C90.3717 166.507 101.256 165.973 107.874 161.805C119.122 154.721 110.349 142.921 110.981 139.843C115.703 136.199 124.961 136.839 130.739 137.327C153.909 139.3 173.484 153.034 187.013 171.377C194.85 182.002 200.128 191.026 213.549 194.398C228.022 191.381 234.663 182.491 236.201 167.835C238.875 142.356 224.509 126.314 209.761 107.577C232.436 121.836 257.637 137.636 265.507 164.68C270.444 181.654 268.937 193.668 260.848 209.013C252.934 221.276 241.586 230.974 227.542 235.131C196.408 244.34 176.122 229.155 173.875 197.194C173.309 189.134 174.56 182.085 172.149 174.268C166.658 156.461 147.273 150.263 130.824 155.831C123.943 157.857 116.935 166.599 111.797 169.857C88.5256 184.613 88.7794 195.477 93.151 221.194C94.1391 227.011 94.0667 238.788 91.5873 244.662C89.6425 249.271 81.7068 251.421 77.3879 248.634C68.1599 241.334 79.626 216.15 72.3603 210.02C59.4014 209.893 64.4012 245.518 53.771 248.4C20.8113 257.339 57.8135 211.16 53.7872 201.413L52.3382 201.054C40.2351 205.511 34.223 228.958 24.5181 236.674C20.5473 239.827 15.3558 238.547 13.1251 233.982C12.9788 228.151 25.5515 205.692 28.6183 197.32L29.0081 196.24C22.035 203.021 17.4513 213.875 7.17956 215.386C-2.33447 216.786 -0.900943 204.117 2.96888 199.921C9.54927 192.787 15.9746 186.146 22.5089 178.9C32.2797 168.064 36.1619 154.27 48.0084 145.412C51.1249 143.14 53.7023 140.941 57.1509 138.999C67.7218 133.047 79.9017 128.367 91.4995 124.996C109.54 119.754 128.475 115.226 147.353 116.872C158.772 117.868 168.998 122.466 180.174 124.407C181.933 124.71 182.087 124.046 183.311 122.988C183.693 120.993 182.656 119.238 181.199 117.825C161.665 98.8769 136.832 85.2897 134.531 55.0539C133.57 41.0212 138.199 27.1788 147.409 16.5484C158.26 4.13161 170 1.03802 185.739 0Z" fill="#3FCEE5"/>
<path d="M143.329 160.081C150.615 160.225 152.627 160.334 159.299 163.467C170.835 176.759 163.214 194.48 162.905 211.685C162.654 222.504 164.828 233.243 169.267 243.111C189.836 288.816 244.559 297.463 279.353 262.95C291.414 250.595 301.171 235.796 317.693 228.771C339.013 219.703 358.922 219.973 380.323 228.012C344.608 226.945 313.853 242.102 292.972 271.231C288.774 277.09 281.489 287.185 276.157 291.23C264.177 300.323 245.27 300.133 239.159 316.775C235.738 325.392 236.712 333.914 236.733 343.161C236.772 360.578 235.013 379.071 226.823 394.769C215.905 415.713 193.806 428.748 182.09 449.311C180.269 452.508 176.944 459.135 177.872 462.53C180.651 465.068 190.708 464.424 195.833 464.029C215.612 462.493 222.422 480.13 212.054 495.046C206.312 500.671 194.499 499.749 188.028 499.808C160.434 500.027 150.611 483.261 151.97 457.255C153.248 432.801 181.91 428.382 196.488 413.964C199.501 410.98 205.717 406.598 206.117 401.945C204.106 402.172 203.798 402.926 201.903 404.367C195.136 410.453 187.873 415.961 180.191 420.84C172.721 425.603 158.445 432.494 153.172 438.807C140.138 454.402 147.925 486.436 162.222 498.484C149.523 498.645 122.52 503.334 112.875 495.367C110.63 493.517 108.838 489.223 108.923 485.909C109.693 455.851 137.306 420.255 160.469 402.743C168.757 396.474 188.327 394.667 195.395 386.152C198.97 381.843 198.818 377.359 198.175 372.495C194.451 344.324 173.36 325.553 161.052 302.276C153.718 288.414 150.122 268.261 148.872 252.445C153.561 264.559 157.923 275.883 165.199 286.739C182.931 313.191 216.508 335.312 216.495 370.11C216.491 380.958 213.619 388.683 210.855 398.932C218.97 390.329 222.244 381.668 224.487 370.366C230.593 339.62 216.492 329.189 195.791 310.85C185.582 301.808 174.981 290.484 167.302 279.095C153.61 258.788 146.483 230.725 151.659 206.564C153.161 199.548 157.203 190.543 158.418 183.632C162.176 162.263 143.16 164.648 140.753 161.135L143.329 160.081Z" fill="#3FCEE5"/>
<path d="M368.379 67.0751C372.015 66.8791 373.214 66.844 376.103 68.7678C380.747 77.9425 363.647 84.4969 360.415 95.0168C362.25 104.889 385.772 91.006 391.309 90.4215C397.599 89.7573 406.961 91.8816 407.911 99.2202C403.64 111.575 374.413 106.193 373.338 115.743C377.88 122.771 393.839 121.02 403.209 125.858C415.372 152.545 361.673 122.452 349.363 133.524C343.505 144.642 368.497 163.436 355.565 173.852C346.767 180.002 340.974 164.676 340.104 158.939C335.774 130.423 275.982 106.655 274.936 148.402C274.314 173.334 300.915 200.319 294.735 227.917C288.54 255.569 260.44 274.816 232.79 275.84C224.546 276.074 219.778 275.225 211.734 273.579C175.054 261.59 162.759 229.359 168.914 193.385C171.236 202.651 171.146 209.034 174.783 219.001C190.972 263.367 260.564 247.376 274.227 209.991C284.846 180.922 264.565 140.598 242.183 121.36C229.94 110.837 221.643 106.181 206.106 100.749C212.3 94.4865 219.827 88.8831 226.482 82.7537C226.185 86.6783 226.395 90.0718 226.558 93.9788C228.962 97.3738 230.594 99.5822 234.722 101.104C243.675 104.404 257.017 95.5684 265.94 91.7806C284.605 83.8612 300.023 82.4465 320.114 84.8137C325.461 85.4442 338.143 88.0791 342.627 86.5327C353.678 82.7193 356.055 73.3208 367.494 67.5155L368.379 67.0751Z" fill="#3FCEE5"/>
<path d="M364.327 234.019C411.436 226.277 430.196 282.723 427.761 319.862C427.154 329.189 425.581 338.545 424.411 347.836C442.162 339.848 458.099 317.039 475.024 306.468C481.416 302.474 493.053 296.681 498.648 306.191C500.776 309.819 499.986 314.34 499.028 318.217C491.641 347.111 463.819 351.274 445.278 370.549C437.313 378.83 426.459 417.205 409 410.066C395.448 404.521 395.418 379.708 391.974 368.391C389.67 360.827 379.657 352.744 377.075 344.917C370.375 326.651 372.665 296.951 350.335 289.314C331.721 282.95 309.033 290.58 292.182 298.18C287.237 300.638 283.8 302.445 278.57 304.135C279.009 303.674 279.455 303.213 279.909 302.76C294.698 287.866 317.876 270.061 339.891 270.054C347.095 270.017 354.233 271.531 360.801 274.501C393.773 289.556 371.86 332.313 385.581 345.341C388.17 347.799 391.154 348.926 394.716 348.706C400.619 348.333 405.439 345.436 409.118 340.879C419.203 328.385 421.888 307.105 420.11 291.633C419.686 287.968 418.911 281.67 415.927 279.322C413.645 282.658 419.24 320.06 401.431 338.414C398.498 341.442 395.053 343.951 390.716 343.966C389.384 343.366 387.673 342.62 387.3 340.93C382.853 320.974 391.827 295.218 382.597 276.096C366.002 241.751 314.358 270.149 292.291 281.699C293.688 279.293 295.253 276.996 296.98 274.816C313.787 253.236 336.855 237.406 364.327 234.019Z" fill="#3FCEE5"/>
<path d="M176.589 339.511C193.24 356.694 192.249 377.008 170.634 389.042C164.692 392.348 156.298 398.72 150.827 402.999L142.959 409.956C157.317 381.865 171.552 374.053 176.589 339.511Z" fill="#3FCEE5"/>
</svg>
